<svg width="44" height="44" viewBox="0 0 44 44" fill="none" xmlns="http://www.w3.org/2000/svg">
<path fill-rule="evenodd" clip-rule="evenodd" d="M27.7137 6.15945L13.6384 6.17097C13.1526 6.17137 12.759 6.56555 12.7594 7.05141L12.7839 36.9616C12.7843 37.4475 13.1785 37.841 13.6643 37.8406L27.7397 37.8291C28.2255 37.8286 28.6191 37.4344 28.6187 36.9487L28.5942 7.03844C28.5938 6.55258 28.1996 6.15904 27.7137 6.15945ZM13.6369 4.41155C12.1794 4.41275 10.9988 5.59529 11 7.05285L11.0245 36.963C11.0257 38.4206 12.2082 39.6012 13.6658 39.6L27.7412 39.5885C29.1987 39.5873 30.3793 38.4048 30.3781 36.9472L30.3537 7.037C30.3524 5.57945 29.1699 4.39883 27.7123 4.40003L13.6369 4.41155Z" fill="#333333"/>
<path fill-rule="evenodd" clip-rule="evenodd" d="M14.5189 7.05001C14.033 7.0504 13.6395 7.44458 13.6399 7.93044L13.6593 31.6827C13.6598 32.1685 14.054 32.562 14.5397 32.5617L26.8557 32.5516C27.3416 32.5511 27.7352 32.157 27.7347 31.6711L27.7153 7.91891C27.7149 7.43306 27.3207 7.03952 26.8349 7.03992L14.5189 7.05001ZM19.9975 24.81L20.6924 25.3878L21.3855 24.814L21.3997 24.8021C22.789 23.6452 23.9317 22.6936 24.7291 21.7996C25.5277 20.9043 25.9659 20.0818 25.9652 19.1864C25.964 17.7294 24.7135 16.5873 23.1209 16.5887C22.2199 16.5894 21.3534 16.9744 20.7886 17.5821L20.6857 17.6929L20.5826 17.5823C20.0168 16.9755 19.1496 16.5919 18.2487 16.5926C16.656 16.5939 15.4075 17.7381 15.4086 19.1951C15.4093 20.0905 15.849 20.9123 16.649 21.8056C17.4506 22.7007 18.5998 23.6525 19.9975 24.81Z" fill="#333333"/>
<path fill-rule="evenodd" clip-rule="evenodd" d="M20.7014 36.9553C21.6731 36.9545 22.4602 36.1661 22.4594 35.1944C22.4585 34.2228 21.6702 33.4357 20.6985 33.4365C19.7268 33.4373 18.9397 34.2257 18.9406 35.1973C18.9413 36.169 19.7297 36.9561 20.7014 36.9553Z" fill="#333333"/>
</svg>
