<svg width="44" height="44" viewBox="0 0 44 44" fill="none" xmlns="http://www.w3.org/2000/svg">
<path fill-rule="evenodd" clip-rule="evenodd" d="M5.86667 9.53331C5.86667 7.91328 7.17992 6.59998 8.8 6.59998H16.6222C18.2423 6.59998 19.5556 7.91328 19.5556 9.53331H22.4889C24.109 9.53331 25.4222 10.8466 25.4222 12.4666V38.8666C25.4222 40.4867 24.109 41.8 22.4889 41.8H2.93333C1.3133 41.8 0 40.4867 0 38.8666V12.4666C0 10.8466 1.3133 9.53331 2.93333 9.53331H5.86667ZM8.8 8.55553C8.25997 8.55553 7.82222 8.9933 7.82222 9.53331V11.4889C7.82222 12.0289 8.25997 12.4666 8.8 12.4666H16.6222C17.1622 12.4666 17.6 12.0289 17.6 11.4889V9.53331C17.6 8.9933 17.1622 8.55553 16.6222 8.55553H8.8ZM7.82222 18.3333V21.2666H4.88889V23.2222H7.82222V26.1555H9.77778V23.2222H12.7111V21.2666H9.77778V18.3333H7.82222ZM5.86667 29.0889C5.32664 29.0889 4.88889 29.5266 4.88889 30.0666C4.88889 30.6067 5.32664 31.0444 5.86667 31.0444H19.5556C20.0956 31.0444 20.5333 30.6067 20.5333 30.0666C20.5333 29.5266 20.0956 29.0889 19.5556 29.0889H5.86667ZM4.88889 34.9555C4.88889 34.4155 5.32664 33.9778 5.86667 33.9778H19.5556C20.0956 33.9778 20.5333 34.4155 20.5333 34.9555C20.5333 35.4956 20.0956 35.9333 19.5556 35.9333H5.86667C5.32664 35.9333 4.88889 35.4956 4.88889 34.9555Z" fill="#333333"/>
<path d="M29.3334 18.3333C29.3334 16.7132 30.6466 15.4 32.2667 15.4C33.8868 15.4 35.2 16.7132 35.2 18.3333V21.2666H29.3334V18.3333Z" fill="#333333"/>
<path d="M29.3334 37.8887V23.222H35.2V37.8887L32.2667 41.7998L29.3334 37.8887Z" fill="#333333"/>
</svg>
