<svg xmlns="http://www.w3.org/2000/svg" xmlns:xlink="http://www.w3.org/1999/xlink" width="400" zoomAndPan="magnify" viewBox="0 0 300 74.999997" height="100" preserveAspectRatio="xMidYMid meet" version="1.0"><defs><g/><clipPath id="fd54387097"><path d="M 0 1 L 50 1 L 50 50 L 0 50 Z M 0 1 " clip-rule="nonzero"/></clipPath><clipPath id="77362e7262"><path d="M 49.96875 1.050781 C 49.992188 4.375 49.601562 15.355469 44.207031 26.078125 C 42.503906 29.449219 40.3125 32.796875 37.472656 35.875 C 30.121094 43.847656 18.460938 49.984375 0 49.984375 L 0 31.253906 C 13.617188 31.253906 23.527344 29.167969 30.746094 26.078125 C 33.316406 24.972656 35.546875 23.746094 37.480469 22.4375 C 48.835938 14.734375 49.921875 4.300781 49.96875 1.050781 Z M 49.96875 1.050781 " clip-rule="nonzero"/></clipPath><linearGradient x1="-0.000000000000001776" gradientTransform="matrix(0.207777, 0, 0, 0.207777, 0.000006, 0.037818)" y1="122.636002" x2="240.600016" gradientUnits="userSpaceOnUse" y2="122.636002" id="dce8e72be9"><stop stop-opacity="1" stop-color="rgb(0%, 59.199524%, 69.799805%)" offset="0"/><stop stop-opacity="1" stop-color="rgb(0%, 59.199524%, 69.799805%)" offset="0.03125"/><stop stop-opacity="1" stop-color="rgb(0.0213623%, 59.272766%, 69.880676%)" offset="0.046875"/><stop stop-opacity="1" stop-color="rgb(0.0808716%, 59.47876%, 70.108032%)" offset="0.0625"/><stop stop-opacity="1" stop-color="rgb(0.157166%, 59.742737%, 70.397949%)" offset="0.078125"/><stop stop-opacity="1" stop-color="rgb(0.234985%, 60.006714%, 70.687866%)" offset="0.09375"/><stop stop-opacity="1" stop-color="rgb(0.311279%, 60.270691%, 70.977783%)" offset="0.109375"/><stop stop-opacity="1" stop-color="rgb(0.389099%, 60.534668%, 71.2677%)" offset="0.125"/><stop stop-opacity="1" stop-color="rgb(0.465393%, 60.798645%, 71.557617%)" offset="0.140625"/><stop stop-opacity="1" stop-color="rgb(0.543213%, 61.061096%, 71.847534%)" offset="0.15625"/><stop stop-opacity="1" stop-color="rgb(0.619507%, 61.325073%, 72.137451%)" offset="0.171875"/><stop stop-opacity="1" stop-color="rgb(0.697327%, 61.58905%, 72.427368%)" offset="0.1875"/><stop stop-opacity="1" stop-color="rgb(0.773621%, 61.853027%, 72.717285%)" offset="0.203125"/><stop stop-opacity="1" stop-color="rgb(0.85144%, 62.117004%, 73.007202%)" offset="0.21875"/><stop stop-opacity="1" stop-color="rgb(0.927734%, 62.380981%, 73.297119%)" offset="0.234375"/><stop stop-opacity="1" stop-color="rgb(1.005554%, 62.644958%, 73.587036%)" offset="0.25"/><stop stop-opacity="1" stop-color="rgb(1.081848%, 62.908936%, 73.876953%)" offset="0.265625"/><stop stop-opacity="1" stop-color="rgb(1.158142%, 63.172913%, 74.168396%)" offset="0.28125"/><stop stop-opacity="1" stop-color="rgb(1.235962%, 63.435364%, 74.458313%)" offset="0.296875"/><stop stop-opacity="1" stop-color="rgb(1.312256%, 63.699341%, 74.74823%)" offset="0.3125"/><stop stop-opacity="1" stop-color="rgb(1.390076%, 63.963318%, 75.038147%)" offset="0.328125"/><stop stop-opacity="1" stop-color="rgb(1.46637%, 64.227295%, 75.328064%)" offset="0.34375"/><stop stop-opacity="1" stop-color="rgb(1.544189%, 64.491272%, 75.617981%)" offset="0.359375"/><stop stop-opacity="1" stop-color="rgb(1.620483%, 64.755249%, 75.907898%)" offset="0.375"/><stop stop-opacity="1" stop-color="rgb(1.698303%, 65.019226%, 76.197815%)" offset="0.390625"/><stop stop-opacity="1" stop-color="rgb(1.774597%, 65.283203%, 76.487732%)" offset="0.40625"/><stop stop-opacity="1" stop-color="rgb(1.852417%, 65.54718%, 76.777649%)" offset="0.421875"/><stop stop-opacity="1" stop-color="rgb(1.928711%, 65.809631%, 77.067566%)" offset="0.4375"/><stop stop-opacity="1" stop-color="rgb(2.006531%, 66.073608%, 77.357483%)" offset="0.453125"/><stop stop-opacity="1" stop-color="rgb(2.082825%, 66.337585%, 77.6474%)" offset="0.46875"/><stop stop-opacity="1" stop-color="rgb(2.160645%, 66.601562%, 77.937317%)" offset="0.484375"/><stop stop-opacity="1" stop-color="rgb(2.236938%, 66.86554%, 78.22876%)" offset="0.5"/><stop stop-opacity="1" stop-color="rgb(2.314758%, 67.129517%, 78.518677%)" offset="0.515625"/><stop stop-opacity="1" stop-color="rgb(2.391052%, 67.393494%, 78.808594%)" offset="0.53125"/><stop stop-opacity="1" stop-color="rgb(2.467346%, 67.657471%, 79.098511%)" offset="0.546875"/><stop stop-opacity="1" stop-color="rgb(2.545166%, 67.921448%, 79.388428%)" offset="0.5625"/><stop stop-opacity="1" stop-color="rgb(2.62146%, 68.183899%, 79.678345%)" offset="0.578125"/><stop stop-opacity="1" stop-color="rgb(2.69928%, 68.447876%, 79.968262%)" offset="0.59375"/><stop stop-opacity="1" stop-color="rgb(2.775574%, 68.711853%, 80.258179%)" offset="0.609375"/><stop stop-opacity="1" stop-color="rgb(2.853394%, 68.97583%, 80.548096%)" offset="0.625"/><stop stop-opacity="1" stop-color="rgb(2.929688%, 69.239807%, 80.838013%)" offset="0.640625"/><stop stop-opacity="1" stop-color="rgb(3.007507%, 69.503784%, 81.12793%)" offset="0.65625"/><stop stop-opacity="1" stop-color="rgb(3.083801%, 69.767761%, 81.417847%)" offset="0.671875"/><stop stop-opacity="1" stop-color="rgb(3.161621%, 70.031738%, 81.707764%)" offset="0.6875"/><stop stop-opacity="1" stop-color="rgb(3.237915%, 70.295715%, 81.997681%)" offset="0.703125"/><stop stop-opacity="1" stop-color="rgb(3.315735%, 70.558167%, 82.289124%)" offset="0.71875"/><stop stop-opacity="1" stop-color="rgb(3.392029%, 70.822144%, 82.579041%)" offset="0.734375"/><stop stop-opacity="1" stop-color="rgb(3.469849%, 71.086121%, 82.868958%)" offset="0.75"/><stop stop-opacity="1" stop-color="rgb(3.546143%, 71.350098%, 83.158875%)" offset="0.765625"/><stop stop-opacity="1" stop-color="rgb(3.623962%, 71.614075%, 83.448792%)" offset="0.78125"/><stop stop-opacity="1" stop-color="rgb(3.700256%, 71.878052%, 83.738708%)" offset="0.796875"/><stop stop-opacity="1" stop-color="rgb(3.778076%, 72.142029%, 84.028625%)" offset="0.8125"/><stop stop-opacity="1" stop-color="rgb(3.85437%, 72.406006%, 84.318542%)" offset="0.828125"/><stop stop-opacity="1" stop-color="rgb(3.930664%, 72.669983%, 84.608459%)" offset="0.84375"/><stop stop-opacity="1" stop-color="rgb(4.008484%, 72.932434%, 84.898376%)" offset="0.859375"/><stop stop-opacity="1" stop-color="rgb(4.084778%, 73.196411%, 85.188293%)" offset="0.875"/><stop stop-opacity="1" stop-color="rgb(4.162598%, 73.460388%, 85.47821%)" offset="0.890625"/><stop stop-opacity="1" stop-color="rgb(4.238892%, 73.724365%, 85.768127%)" offset="0.90625"/><stop stop-opacity="1" stop-color="rgb(4.316711%, 73.988342%, 86.058044%)" offset="0.921875"/><stop stop-opacity="1" stop-color="rgb(4.393005%, 74.252319%, 86.349487%)" offset="0.9375"/><stop stop-opacity="1" stop-color="rgb(4.470825%, 74.516296%, 86.639404%)" offset="0.953125"/><stop stop-opacity="1" stop-color="rgb(4.547119%, 74.780273%, 86.929321%)" offset="0.96875"/><stop stop-opacity="1" stop-color="rgb(4.624939%, 75.04425%, 87.219238%)" offset="0.984375"/><stop stop-opacity="1" stop-color="rgb(4.681396%, 75.236511%, 87.431335%)" offset="1"/></linearGradient><clipPath id="da54ec2563"><path d="M 31 25 L 81 25 L 81 74 L 31 74 Z M 31 25 " clip-rule="nonzero"/></clipPath><clipPath id="ca89b47ee2"><path d="M 31.222656 73.945312 C 31.199219 70.621094 31.589844 59.640625 36.984375 48.917969 C 38.6875 45.546875 40.878906 42.199219 43.71875 39.121094 C 51.070312 31.148438 62.730469 25.011719 81.191406 25.011719 L 81.191406 43.742188 C 67.578125 43.742188 57.664062 45.828125 50.445312 48.917969 C 47.875 50.023438 45.644531 51.25 43.714844 52.558594 C 32.355469 60.261719 31.269531 70.695312 31.222656 73.945312 Z M 31.222656 73.945312 " clip-rule="nonzero"/></clipPath><linearGradient x1="168.360845" gradientTransform="matrix(-0.207777, 0, 0, -0.207777, 115.981492, 41.629765)" y1="-37.771" x2="408.04204" gradientUnits="userSpaceOnUse" y2="-37.771" id="6f3f01f30a"><stop stop-opacity="1" stop-color="rgb(0%, 59.199524%, 69.799805%)" offset="0"/><stop stop-opacity="1" stop-color="rgb(0%, 59.199524%, 69.799805%)" offset="0.03125"/><stop stop-opacity="1" stop-color="rgb(0.0305176%, 59.30481%, 69.914246%)" offset="0.046875"/><stop stop-opacity="1" stop-color="rgb(0.0991821%, 59.541321%, 70.173645%)" offset="0.0625"/><stop stop-opacity="1" stop-color="rgb(0.175476%, 59.803772%, 70.463562%)" offset="0.078125"/><stop stop-opacity="1" stop-color="rgb(0.25177%, 60.066223%, 70.751953%)" offset="0.09375"/><stop stop-opacity="1" stop-color="rgb(0.32959%, 60.328674%, 71.040344%)" offset="0.109375"/><stop stop-opacity="1" stop-color="rgb(0.405884%, 60.592651%, 71.330261%)" offset="0.125"/><stop stop-opacity="1" stop-color="rgb(0.482178%, 60.855103%, 71.618652%)" offset="0.140625"/><stop stop-opacity="1" stop-color="rgb(0.558472%, 61.117554%, 71.908569%)" offset="0.15625"/><stop stop-opacity="1" stop-color="rgb(0.636292%, 61.380005%, 72.19696%)" offset="0.171875"/><stop stop-opacity="1" stop-color="rgb(0.712585%, 61.642456%, 72.485352%)" offset="0.1875"/><stop stop-opacity="1" stop-color="rgb(0.788879%, 61.906433%, 72.775269%)" offset="0.203125"/><stop stop-opacity="1" stop-color="rgb(0.866699%, 62.168884%, 73.06366%)" offset="0.21875"/><stop stop-opacity="1" stop-color="rgb(0.942993%, 62.431335%, 73.352051%)" offset="0.234375"/><stop stop-opacity="1" stop-color="rgb(1.019287%, 62.693787%, 73.641968%)" offset="0.25"/><stop stop-opacity="1" stop-color="rgb(1.095581%, 62.957764%, 73.930359%)" offset="0.265625"/><stop stop-opacity="1" stop-color="rgb(1.173401%, 63.220215%, 74.21875%)" offset="0.28125"/><stop stop-opacity="1" stop-color="rgb(1.249695%, 63.482666%, 74.508667%)" offset="0.296875"/><stop stop-opacity="1" stop-color="rgb(1.325989%, 63.745117%, 74.797058%)" offset="0.3125"/><stop stop-opacity="1" stop-color="rgb(1.402283%, 64.007568%, 75.085449%)" offset="0.328125"/><stop stop-opacity="1" stop-color="rgb(1.480103%, 64.271545%, 75.375366%)" offset="0.34375"/><stop stop-opacity="1" stop-color="rgb(1.556396%, 64.533997%, 75.663757%)" offset="0.359375"/><stop stop-opacity="1" stop-color="rgb(1.63269%, 64.796448%, 75.952148%)" offset="0.375"/><stop stop-opacity="1" stop-color="rgb(1.71051%, 65.058899%, 76.242065%)" offset="0.390625"/><stop stop-opacity="1" stop-color="rgb(1.786804%, 65.322876%, 76.530457%)" offset="0.40625"/><stop stop-opacity="1" stop-color="rgb(1.863098%, 65.585327%, 76.818848%)" offset="0.421875"/><stop stop-opacity="1" stop-color="rgb(1.939392%, 65.847778%, 77.108765%)" offset="0.4375"/><stop stop-opacity="1" stop-color="rgb(2.017212%, 66.110229%, 77.397156%)" offset="0.453125"/><stop stop-opacity="1" stop-color="rgb(2.093506%, 66.374207%, 77.685547%)" offset="0.46875"/><stop stop-opacity="1" stop-color="rgb(2.1698%, 66.636658%, 77.975464%)" offset="0.484375"/><stop stop-opacity="1" stop-color="rgb(2.24762%, 66.899109%, 78.263855%)" offset="0.5"/><stop stop-opacity="1" stop-color="rgb(2.323914%, 67.16156%, 78.552246%)" offset="0.515625"/><stop stop-opacity="1" stop-color="rgb(2.400208%, 67.424011%, 78.842163%)" offset="0.53125"/><stop stop-opacity="1" stop-color="rgb(2.476501%, 67.687988%, 79.130554%)" offset="0.546875"/><stop stop-opacity="1" stop-color="rgb(2.554321%, 67.950439%, 79.420471%)" offset="0.5625"/><stop stop-opacity="1" stop-color="rgb(2.630615%, 68.212891%, 79.708862%)" offset="0.578125"/><stop stop-opacity="1" stop-color="rgb(2.706909%, 68.475342%, 79.997253%)" offset="0.59375"/><stop stop-opacity="1" stop-color="rgb(2.783203%, 68.739319%, 80.28717%)" offset="0.609375"/><stop stop-opacity="1" stop-color="rgb(2.861023%, 69.00177%, 80.575562%)" offset="0.625"/><stop stop-opacity="1" stop-color="rgb(2.937317%, 69.264221%, 80.863953%)" offset="0.640625"/><stop stop-opacity="1" stop-color="rgb(3.013611%, 69.526672%, 81.15387%)" offset="0.65625"/><stop stop-opacity="1" stop-color="rgb(3.091431%, 69.790649%, 81.442261%)" offset="0.671875"/><stop stop-opacity="1" stop-color="rgb(3.167725%, 70.053101%, 81.730652%)" offset="0.6875"/><stop stop-opacity="1" stop-color="rgb(3.244019%, 70.315552%, 82.020569%)" offset="0.703125"/><stop stop-opacity="1" stop-color="rgb(3.320312%, 70.578003%, 82.30896%)" offset="0.71875"/><stop stop-opacity="1" stop-color="rgb(3.398132%, 70.840454%, 82.597351%)" offset="0.734375"/><stop stop-opacity="1" stop-color="rgb(3.474426%, 71.104431%, 82.887268%)" offset="0.75"/><stop stop-opacity="1" stop-color="rgb(3.55072%, 71.366882%, 83.175659%)" offset="0.765625"/><stop stop-opacity="1" stop-color="rgb(3.62854%, 71.629333%, 83.46405%)" offset="0.78125"/><stop stop-opacity="1" stop-color="rgb(3.704834%, 71.891785%, 83.753967%)" offset="0.796875"/><stop stop-opacity="1" stop-color="rgb(3.781128%, 72.155762%, 84.042358%)" offset="0.8125"/><stop stop-opacity="1" stop-color="rgb(3.857422%, 72.418213%, 84.33075%)" offset="0.828125"/><stop stop-opacity="1" stop-color="rgb(3.935242%, 72.680664%, 84.620667%)" offset="0.84375"/><stop stop-opacity="1" stop-color="rgb(4.011536%, 72.943115%, 84.909058%)" offset="0.859375"/><stop stop-opacity="1" stop-color="rgb(4.08783%, 73.207092%, 85.197449%)" offset="0.875"/><stop stop-opacity="1" stop-color="rgb(4.164124%, 73.469543%, 85.487366%)" offset="0.890625"/><stop stop-opacity="1" stop-color="rgb(4.241943%, 73.731995%, 85.775757%)" offset="0.90625"/><stop stop-opacity="1" stop-color="rgb(4.318237%, 73.994446%, 86.064148%)" offset="0.921875"/><stop stop-opacity="1" stop-color="rgb(4.394531%, 74.256897%, 86.354065%)" offset="0.9375"/><stop stop-opacity="1" stop-color="rgb(4.472351%, 74.520874%, 86.642456%)" offset="0.953125"/><stop stop-opacity="1" stop-color="rgb(4.548645%, 74.783325%, 86.930847%)" offset="0.96875"/><stop stop-opacity="1" stop-color="rgb(4.624939%, 75.045776%, 87.220764%)" offset="0.984375"/><stop stop-opacity="1" stop-color="rgb(4.681396%, 75.238037%, 87.432861%)" offset="1"/></linearGradient></defs><path fill="#1f2b5b" d="M 31.21875 26.914062 L 31.21875 0.0390625 L 49.972656 0.0390625 C 49.972656 0.0390625 50.222656 12.617188 45.429688 17.6875 C 40.632812 22.753906 31.21875 26.914062 31.21875 26.914062 Z M 31.21875 26.914062 " fill-opacity="1" fill-rule="nonzero"/><g clip-path="url(#fd54387097)"><g clip-path="url(#77362e7262)"><path fill="url(#dce8e72be9)" d="M 0 1.050781 L 0 49.984375 L 49.992188 49.984375 L 49.992188 1.050781 Z M 0 1.050781 " fill-rule="nonzero"/></g></g><path fill="#1f2b5b" d="M 49.972656 48.078125 L 49.972656 74.957031 L 31.21875 74.957031 C 31.21875 74.957031 30.96875 62.378906 35.765625 57.308594 C 40.558594 52.242188 49.972656 48.078125 49.972656 48.078125 Z M 49.972656 48.078125 " fill-opacity="1" fill-rule="nonzero"/><g clip-path="url(#da54ec2563)"><g clip-path="url(#ca89b47ee2)"><path fill="url(#6f3f01f30a)" d="M 81 73.945312 L 81 25.011719 L 31.199219 25.011719 L 31.199219 73.945312 Z M 81 73.945312 " fill-rule="nonzero"/></g></g><g fill="#1f2b5b" fill-opacity="1"><g transform="translate(81.689838, 44.477724)"><g><path d="M 5.117188 0 C 5.832031 0 6.4375 -0.246094 6.929688 -0.738281 C 7.421875 -1.230469 7.664062 -1.832031 7.664062 -2.527344 L 7.664062 -20.449219 C 7.664062 -21.5 8.066406 -22.417969 8.785156 -23.132812 C 9.519531 -23.871094 10.394531 -24.226562 11.441406 -24.226562 C 12.492188 -24.226562 13.433594 -23.824219 14.125 -23.109375 C 14.816406 -22.417969 15.175781 -21.457031 15.175781 -20.449219 L 15.175781 -2.546875 C 15.175781 -1.832031 15.421875 -1.230469 15.933594 -0.761719 C 16.382812 -0.289062 17.03125 0 17.746094 0 C 18.4375 0 19.042969 -0.246094 19.554688 -0.761719 C 20.046875 -1.25 20.292969 -1.855469 20.292969 -2.546875 L 20.292969 -20.515625 C 20.292969 -21.5 20.71875 -22.4375 21.367188 -23.132812 C 22.015625 -23.824219 22.976562 -24.226562 23.980469 -24.226562 C 24.964844 -24.226562 25.925781 -23.800781 26.640625 -23.15625 C 27.355469 -22.507812 27.78125 -21.523438 27.804688 -20.539062 L 27.804688 -2.527344 C 27.804688 -1.808594 28.050781 -1.207031 28.5625 -0.738281 C 29.03125 -0.246094 29.636719 0 30.375 0 C 31.089844 0 31.691406 -0.246094 32.183594 -0.738281 C 32.675781 -1.230469 32.921875 -1.832031 32.921875 -2.527344 L 32.921875 -20.671875 C 32.921875 -23.066406 31.960938 -25.300781 30.328125 -26.929688 C 28.695312 -28.5625 26.460938 -29.523438 24.027344 -29.523438 C 21.546875 -29.523438 19.355469 -28.539062 17.722656 -26.820312 C 16.09375 -28.539062 13.878906 -29.523438 11.398438 -29.523438 C 8.960938 -29.523438 6.75 -28.5625 5.140625 -26.929688 C 3.53125 -25.300781 2.570312 -23.066406 2.570312 -20.671875 L 2.570312 -2.527344 C 2.570312 -1.808594 2.816406 -1.207031 3.332031 -0.738281 C 3.800781 -0.246094 4.378906 0 5.117188 0 Z M 5.117188 0 "/></g></g></g><g fill="#1f2b5b" fill-opacity="1"><g transform="translate(117.173043, 44.477724)"><g><path d="M 11.957031 0.246094 C 13.925781 0.246094 15.667969 -0.0664062 16.851562 -0.671875 C 18.035156 -1.273438 18.730469 -2.125 18.730469 -3.105469 C 18.730469 -3.753906 18.460938 -4.425781 18.035156 -4.894531 C 17.542969 -5.410156 16.964844 -5.675781 16.292969 -5.675781 C 15.867188 -5.675781 15.375 -5.519531 14.839844 -5.207031 C 14.035156 -4.738281 13.277344 -4.515625 11.957031 -4.515625 C 10.707031 -4.515625 9.589844 -4.871094 8.605469 -5.609375 C 7.597656 -6.347656 6.90625 -7.285156 6.527344 -8.402344 L 20.496094 -8.402344 C 21.925781 -8.402344 22.929688 -9.34375 22.929688 -10.773438 C 22.863281 -13.699219 21.632812 -16.449219 19.644531 -18.417969 C 17.613281 -20.40625 14.886719 -21.566406 11.957031 -21.566406 C 9.007812 -21.566406 6.234375 -20.359375 4.203125 -18.371094 C 2.167969 -16.382812 0.984375 -13.609375 0.984375 -10.636719 C 0.984375 -7.6875 2.167969 -4.9375 4.203125 -2.949219 C 6.234375 -0.960938 9.007812 0.246094 11.957031 0.246094 Z M 6.371094 -12.5625 C 6.703125 -13.746094 7.421875 -14.863281 8.402344 -15.601562 C 9.453125 -16.425781 10.683594 -16.828125 12.046875 -16.828125 C 13.453125 -16.828125 14.683594 -16.425781 15.734375 -15.644531 C 16.738281 -14.863281 17.476562 -13.789062 17.835938 -12.5625 Z M 6.371094 -12.5625 "/></g></g></g><g fill="#1f2b5b" fill-opacity="1"><g transform="translate(141.059413, 44.477724)"><g><path d="M 11.890625 0.246094 C 14.816406 0.246094 17.566406 -0.9375 19.554688 -2.929688 C 21.589844 -4.917969 22.773438 -7.597656 22.796875 -10.527344 L 22.796875 -26.886719 C 22.796875 -27.601562 22.550781 -28.207031 22.082031 -28.71875 C 21.589844 -29.210938 20.988281 -29.457031 20.292969 -29.457031 C 19.601562 -29.457031 19.019531 -29.210938 18.527344 -28.71875 C 18.058594 -28.226562 17.835938 -27.625 17.835938 -26.886719 L 17.835938 -18.664062 C 16.652344 -20.628906 14.90625 -21.566406 11.890625 -21.566406 C 8.941406 -21.566406 6.234375 -20.40625 4.203125 -18.371094 C 2.167969 -16.335938 0.984375 -13.589844 0.984375 -10.636719 C 0.984375 -7.6875 2.167969 -4.9375 4.203125 -2.949219 C 6.234375 -0.917969 8.941406 0.246094 11.890625 0.246094 Z M 11.890625 -4.714844 C 10.28125 -4.714844 8.804688 -5.363281 7.710938 -6.460938 C 6.617188 -7.554688 5.96875 -9.03125 5.96875 -10.636719 C 5.96875 -12.246094 6.617188 -13.722656 7.710938 -14.816406 C 8.785156 -15.890625 10.304688 -16.539062 11.890625 -16.539062 C 13.5 -16.539062 15.019531 -15.890625 16.09375 -14.816406 C 17.1875 -13.722656 17.835938 -12.246094 17.835938 -10.636719 C 17.835938 -9.03125 17.210938 -7.554688 16.113281 -6.460938 C 15.019531 -5.363281 13.523438 -4.714844 11.890625 -4.714844 Z M 11.890625 -4.714844 "/></g></g></g><g fill="#1f2b5b" fill-opacity="1"><g transform="translate(165.839566, 44.477724)"><g><path d="M 4.804688 -23.78125 C 5.519531 -23.78125 6.214844 -24.070312 6.726562 -24.585938 C 7.265625 -25.121094 7.53125 -25.769531 7.53125 -26.507812 C 7.53125 -27.222656 7.242188 -27.914062 6.726562 -28.429688 C 6.214844 -28.941406 5.542969 -29.210938 4.804688 -29.210938 C 4.046875 -29.210938 3.398438 -28.941406 2.882812 -28.429688 C 2.367188 -27.914062 2.078125 -27.222656 2.078125 -26.507812 C 2.078125 -25.769531 2.347656 -25.121094 2.882812 -24.585938 C 3.417969 -24.046875 4.066406 -23.78125 4.804688 -23.78125 Z M 4.804688 0.199219 C 5.5 0.199219 6.078125 -0.0429688 6.546875 -0.515625 C 7.019531 -0.984375 7.265625 -1.566406 7.265625 -2.257812 L 7.265625 -19.085938 C 7.265625 -19.734375 6.996094 -20.382812 6.570312 -20.828125 C 6.078125 -21.320312 5.5 -21.566406 4.828125 -21.566406 C 4.132812 -21.566406 3.488281 -21.277344 3.039062 -20.828125 C 2.570312 -20.382812 2.28125 -19.734375 2.28125 -19.085938 L 2.28125 -2.257812 C 2.28125 -1.566406 2.527344 -0.984375 3.039062 -0.515625 C 3.507812 -0.0429688 4.113281 0.199219 4.804688 0.199219 Z M 4.804688 0.199219 "/></g></g></g><g fill="#1f2b5b" fill-opacity="1"><g transform="translate(175.4254, 44.477724)"><g><path d="M 19.199219 0 C 20.628906 0 21.679688 -1.027344 21.679688 -2.457031 C 21.679688 -3.152344 21.433594 -3.734375 20.964844 -4.203125 C 20.496094 -4.671875 19.890625 -4.917969 19.199219 -4.917969 L 7.933594 -4.9375 L 7.933594 -27.066406 C 7.933594 -27.757812 7.6875 -28.339844 7.21875 -28.808594 C 6.75 -29.277344 6.144531 -29.523438 5.453125 -29.523438 C 4.761719 -29.523438 4.179688 -29.277344 3.710938 -28.808594 C 3.21875 -28.316406 2.972656 -27.734375 2.972656 -27.066406 L 2.972656 -2.4375 C 2.972656 -1.789062 3.195312 -1.230469 3.664062 -0.738281 C 4.113281 -0.289062 4.714844 0 5.339844 0 Z M 19.199219 0 "/></g></g></g><g fill="#1f2b5b" fill-opacity="1"><g transform="translate(198.70846, 44.477724)"><g><path d="M 11.890625 0.246094 C 14.058594 0.246094 16.070312 -0.359375 17.878906 -1.566406 C 18.171875 -0.492188 19.0625 0.199219 20.226562 0.199219 C 20.941406 0.199219 21.546875 -0.0429688 22.015625 -0.558594 C 22.507812 -1.050781 22.753906 -1.652344 22.753906 -2.347656 L 22.753906 -10.636719 C 22.753906 -13.609375 21.566406 -16.335938 19.578125 -18.371094 C 17.542969 -20.40625 14.839844 -21.566406 11.890625 -21.566406 C 8.960938 -21.566406 6.214844 -20.359375 4.222656 -18.371094 C 2.234375 -16.335938 1.027344 -13.589844 1.027344 -10.636719 C 1.027344 -7.6875 2.191406 -4.984375 4.222656 -2.949219 C 6.214844 -0.960938 8.960938 0.246094 11.890625 0.246094 Z M 11.890625 -4.714844 C 10.28125 -4.714844 8.804688 -5.363281 7.734375 -6.460938 C 6.636719 -7.554688 6.011719 -9.03125 6.011719 -10.636719 C 6.011719 -12.246094 6.636719 -13.722656 7.734375 -14.816406 C 8.828125 -15.914062 10.304688 -16.539062 11.890625 -16.539062 C 13.5 -16.539062 15.019531 -15.890625 16.09375 -14.816406 C 17.164062 -13.722656 17.789062 -12.246094 17.789062 -10.636719 C 17.789062 -9.03125 17.164062 -7.554688 16.09375 -6.460938 C 14.996094 -5.363281 13.5 -4.714844 11.890625 -4.714844 Z M 11.890625 -4.714844 "/></g></g></g><g fill="#1f2b5b" fill-opacity="1"><g transform="translate(223.488613, 44.477724)"><g><path d="M 12.917969 0.269531 C 15.621094 0.269531 18.035156 -0.625 19.914062 -2.414062 C 20.515625 -2.972656 20.808594 -3.664062 20.808594 -4.492188 C 20.808594 -5.140625 20.585938 -5.699219 20.113281 -6.191406 C 19.667969 -6.636719 19.152344 -6.863281 18.574219 -6.863281 C 17.859375 -6.863281 17.386719 -6.617188 16.695312 -6.011719 C 15.667969 -5.140625 14.414062 -4.695312 12.917969 -4.695312 C 11.285156 -4.695312 9.832031 -5.296875 8.761719 -6.390625 C 7.6875 -7.464844 7.085938 -8.917969 7.085938 -10.527344 L 7.085938 -17.054688 L 14.929688 -17.054688 C 15.621094 -17.054688 16.226562 -17.296875 16.695312 -17.769531 C 17.140625 -18.214844 17.433594 -18.820312 17.433594 -19.445312 C 17.433594 -20.136719 17.1875 -20.71875 16.695312 -21.210938 C 16.203125 -21.703125 15.621094 -21.949219 14.929688 -21.949219 L 7.085938 -21.949219 L 7.085938 -25.546875 C 7.085938 -26.238281 6.816406 -26.84375 6.300781 -27.355469 C 5.789062 -27.824219 5.183594 -28.070312 4.492188 -28.070312 C 3.820312 -28.070312 3.242188 -27.824219 2.75 -27.332031 C 2.234375 -26.863281 1.988281 -26.261719 1.988281 -25.546875 L 1.988281 -10.570312 C 1.988281 -7.597656 3.152344 -4.871094 5.183594 -2.882812 C 7.175781 -0.894531 9.902344 0.269531 12.917969 0.269531 Z M 12.917969 0.269531 "/></g></g></g><g fill="#1f2b5b" fill-opacity="1"><g transform="translate(244.78301, 44.477724)"><g><path d="M 11.890625 0.246094 C 14.058594 0.246094 16.070312 -0.359375 17.878906 -1.566406 C 18.171875 -0.492188 19.0625 0.199219 20.226562 0.199219 C 20.941406 0.199219 21.546875 -0.0429688 22.015625 -0.558594 C 22.507812 -1.050781 22.753906 -1.652344 22.753906 -2.347656 L 22.753906 -10.636719 C 22.753906 -13.609375 21.566406 -16.335938 19.578125 -18.371094 C 17.542969 -20.40625 14.839844 -21.566406 11.890625 -21.566406 C 8.960938 -21.566406 6.214844 -20.359375 4.222656 -18.371094 C 2.234375 -16.335938 1.027344 -13.589844 1.027344 -10.636719 C 1.027344 -7.6875 2.191406 -4.984375 4.222656 -2.949219 C 6.214844 -0.960938 8.960938 0.246094 11.890625 0.246094 Z M 11.890625 -4.714844 C 10.28125 -4.714844 8.804688 -5.363281 7.734375 -6.460938 C 6.636719 -7.554688 6.011719 -9.03125 6.011719 -10.636719 C 6.011719 -12.246094 6.636719 -13.722656 7.734375 -14.816406 C 8.828125 -15.914062 10.304688 -16.539062 11.890625 -16.539062 C 13.5 -16.539062 15.019531 -15.890625 16.09375 -14.816406 C 17.164062 -13.722656 17.789062 -12.246094 17.789062 -10.636719 C 17.789062 -9.03125 17.164062 -7.554688 16.09375 -6.460938 C 14.996094 -5.363281 13.5 -4.714844 11.890625 -4.714844 Z M 11.890625 -4.714844 "/></g></g></g><g fill="#1f2b5b" fill-opacity="1"><g transform="translate(269.563164, 44.477724)"><g><path d="M 4.535156 0 C 5.183594 0 5.765625 -0.246094 6.234375 -0.714844 C 6.726562 -1.207031 6.972656 -1.789062 6.972656 -2.457031 L 7.0625 -13.765625 C 7.0625 -13.835938 7.039062 -13.96875 7.019531 -14.167969 C 7.265625 -15.488281 8.402344 -16.472656 9.8125 -16.472656 C 10.527344 -16.472656 11.21875 -16.179688 11.734375 -15.667969 C 12.246094 -15.152344 12.539062 -14.4375 12.539062 -13.722656 L 12.539062 -13.699219 L 12.582031 -13.542969 L 12.582031 -2.527344 C 12.582031 -1.832031 12.828125 -1.230469 13.296875 -0.761719 C 13.765625 -0.289062 14.371094 -0.0429688 15.0625 -0.0429688 C 15.710938 -0.0429688 16.335938 -0.3125 16.785156 -0.761719 C 17.253906 -1.230469 17.5 -1.832031 17.5 -2.527344 L 17.5 -13.679688 C 17.5 -13.8125 17.5 -13.902344 17.476562 -13.925781 C 17.542969 -14.640625 17.835938 -15.242188 18.371094 -15.710938 C 18.90625 -16.203125 19.511719 -16.449219 20.203125 -16.449219 C 20.941406 -16.449219 21.679688 -16.179688 22.214844 -15.667969 C 22.773438 -15.152344 23.109375 -14.460938 23.109375 -13.746094 L 23.109375 -2.457031 C 23.109375 -1.765625 23.355469 -1.183594 23.824219 -0.714844 C 24.292969 -0.246094 24.898438 0 25.589844 0 C 26.238281 0 26.863281 -0.269531 27.3125 -0.714844 C 27.804688 -1.207031 28.050781 -1.789062 28.050781 -2.457031 L 28.050781 -13.878906 C 28.050781 -15.933594 27.15625 -17.859375 25.703125 -19.308594 C 24.25 -20.742188 22.238281 -21.566406 20.160156 -21.566406 C 18.171875 -21.566406 16.359375 -20.828125 14.953125 -19.511719 C 13.5 -20.828125 11.667969 -21.566406 9.722656 -21.566406 C 7.644531 -21.566406 5.722656 -20.742188 4.292969 -19.308594 C 2.859375 -17.878906 2.035156 -15.957031 2.035156 -13.878906 L 2.035156 -2.457031 C 2.035156 -1.789062 2.28125 -1.207031 2.769531 -0.714844 C 3.242188 -0.246094 3.84375 0 4.535156 0 Z M 4.535156 0 "/></g></g></g><g fill="#737373" fill-opacity="1"><g transform="translate(131.586104, 68.97277)"><g><path d="M 9.28125 0.140625 C 7.738281 0.140625 6.347656 -0.195312 5.109375 -0.875 C 3.878906 -1.5625 2.910156 -2.507812 2.203125 -3.71875 C 1.503906 -4.925781 1.15625 -6.273438 1.15625 -7.765625 C 1.15625 -9.253906 1.503906 -10.601562 2.203125 -11.8125 C 2.910156 -13.019531 3.882812 -13.960938 5.125 -14.640625 C 6.363281 -15.328125 7.753906 -15.671875 9.296875 -15.671875 C 10.453125 -15.671875 11.515625 -15.476562 12.484375 -15.09375 C 13.460938 -14.707031 14.289062 -14.144531 14.96875 -13.40625 L 13.9375 -12.359375 C 12.71875 -13.585938 11.1875 -14.203125 9.34375 -14.203125 C 8.113281 -14.203125 6.992188 -13.921875 5.984375 -13.359375 C 4.984375 -12.796875 4.195312 -12.023438 3.625 -11.046875 C 3.050781 -10.066406 2.765625 -8.972656 2.765625 -7.765625 C 2.765625 -6.554688 3.050781 -5.460938 3.625 -4.484375 C 4.195312 -3.503906 4.984375 -2.734375 5.984375 -2.171875 C 6.992188 -1.609375 8.113281 -1.328125 9.34375 -1.328125 C 11.207031 -1.328125 12.738281 -1.945312 13.9375 -3.1875 L 14.96875 -2.15625 C 14.289062 -1.414062 13.457031 -0.847656 12.46875 -0.453125 C 11.488281 -0.0546875 10.425781 0.140625 9.28125 0.140625 Z M 9.28125 0.140625 "/></g></g></g><g fill="#737373" fill-opacity="1"><g transform="translate(147.536157, 68.97277)"><g><path d="M 6.96875 0.109375 C 5.84375 0.109375 4.828125 -0.144531 3.921875 -0.65625 C 3.023438 -1.164062 2.316406 -1.867188 1.796875 -2.765625 C 1.273438 -3.671875 1.015625 -4.691406 1.015625 -5.828125 C 1.015625 -6.972656 1.273438 -7.992188 1.796875 -8.890625 C 2.316406 -9.796875 3.023438 -10.5 3.921875 -11 C 4.828125 -11.507812 5.84375 -11.765625 6.96875 -11.765625 C 8.09375 -11.765625 9.101562 -11.507812 10 -11 C 10.90625 -10.5 11.613281 -9.796875 12.125 -8.890625 C 12.632812 -7.992188 12.890625 -6.972656 12.890625 -5.828125 C 12.890625 -4.691406 12.632812 -3.671875 12.125 -2.765625 C 11.613281 -1.867188 10.90625 -1.164062 10 -0.65625 C 9.101562 -0.144531 8.09375 0.109375 6.96875 0.109375 Z M 6.96875 -1.28125 C 7.789062 -1.28125 8.53125 -1.46875 9.1875 -1.84375 C 9.851562 -2.226562 10.367188 -2.765625 10.734375 -3.453125 C 11.109375 -4.148438 11.296875 -4.941406 11.296875 -5.828125 C 11.296875 -6.722656 11.109375 -7.515625 10.734375 -8.203125 C 10.367188 -8.898438 9.851562 -9.4375 9.1875 -9.8125 C 8.53125 -10.195312 7.789062 -10.390625 6.96875 -10.390625 C 6.132812 -10.390625 5.390625 -10.195312 4.734375 -9.8125 C 4.078125 -9.4375 3.5625 -8.898438 3.1875 -8.203125 C 2.8125 -7.515625 2.625 -6.722656 2.625 -5.828125 C 2.625 -4.941406 2.8125 -4.148438 3.1875 -3.453125 C 3.5625 -2.765625 4.078125 -2.226562 4.734375 -1.84375 C 5.390625 -1.46875 6.132812 -1.28125 6.96875 -1.28125 Z M 6.96875 -1.28125 "/></g></g></g><g fill="#737373" fill-opacity="1"><g transform="translate(161.445305, 68.97277)"><g><path d="M 8.140625 -11.765625 C 9.609375 -11.765625 10.773438 -11.335938 11.640625 -10.484375 C 12.503906 -9.628906 12.9375 -8.390625 12.9375 -6.765625 L 12.9375 0 L 11.359375 0 L 11.359375 -6.609375 C 11.359375 -7.828125 11.054688 -8.753906 10.453125 -9.390625 C 9.847656 -10.023438 8.984375 -10.34375 7.859375 -10.34375 C 6.597656 -10.34375 5.597656 -9.96875 4.859375 -9.21875 C 4.128906 -8.46875 3.765625 -7.4375 3.765625 -6.125 L 3.765625 0 L 2.203125 0 L 2.203125 -11.671875 L 3.703125 -11.671875 L 3.703125 -9.515625 C 4.128906 -10.222656 4.722656 -10.773438 5.484375 -11.171875 C 6.253906 -11.566406 7.140625 -11.765625 8.140625 -11.765625 Z M 8.140625 -11.765625 "/></g></g></g><g fill="#737373" fill-opacity="1"><g transform="translate(176.463637, 68.97277)"><g><path d="M 8.140625 -11.765625 C 9.609375 -11.765625 10.773438 -11.335938 11.640625 -10.484375 C 12.503906 -9.628906 12.9375 -8.390625 12.9375 -6.765625 L 12.9375 0 L 11.359375 0 L 11.359375 -6.609375 C 11.359375 -7.828125 11.054688 -8.753906 10.453125 -9.390625 C 9.847656 -10.023438 8.984375 -10.34375 7.859375 -10.34375 C 6.597656 -10.34375 5.597656 -9.96875 4.859375 -9.21875 C 4.128906 -8.46875 3.765625 -7.4375 3.765625 -6.125 L 3.765625 0 L 2.203125 0 L 2.203125 -11.671875 L 3.703125 -11.671875 L 3.703125 -9.515625 C 4.128906 -10.222656 4.722656 -10.773438 5.484375 -11.171875 C 6.253906 -11.566406 7.140625 -11.765625 8.140625 -11.765625 Z M 8.140625 -11.765625 "/></g></g></g><g fill="#737373" fill-opacity="1"><g transform="translate(191.48197, 68.97277)"><g><path d="M 12.359375 -5.34375 L 2.59375 -5.34375 C 2.6875 -4.132812 3.15625 -3.15625 4 -2.40625 C 4.84375 -1.65625 5.90625 -1.28125 7.1875 -1.28125 C 7.914062 -1.28125 8.582031 -1.410156 9.1875 -1.671875 C 9.789062 -1.929688 10.316406 -2.3125 10.765625 -2.8125 L 11.640625 -1.796875 C 11.128906 -1.171875 10.484375 -0.695312 9.703125 -0.375 C 8.929688 -0.0507812 8.078125 0.109375 7.140625 0.109375 C 5.941406 0.109375 4.878906 -0.144531 3.953125 -0.65625 C 3.035156 -1.164062 2.316406 -1.867188 1.796875 -2.765625 C 1.273438 -3.671875 1.015625 -4.691406 1.015625 -5.828125 C 1.015625 -6.972656 1.257812 -7.992188 1.75 -8.890625 C 2.25 -9.796875 2.929688 -10.5 3.796875 -11 C 4.671875 -11.507812 5.644531 -11.765625 6.71875 -11.765625 C 7.800781 -11.765625 8.769531 -11.507812 9.625 -11 C 10.488281 -10.5 11.160156 -9.800781 11.640625 -8.90625 C 12.128906 -8.007812 12.375 -6.984375 12.375 -5.828125 Z M 6.71875 -10.40625 C 5.59375 -10.40625 4.648438 -10.046875 3.890625 -9.328125 C 3.128906 -8.609375 2.695312 -7.671875 2.59375 -6.515625 L 10.875 -6.515625 C 10.769531 -7.671875 10.335938 -8.609375 9.578125 -9.328125 C 8.816406 -10.046875 7.863281 -10.40625 6.71875 -10.40625 Z M 6.71875 -10.40625 "/></g></g></g><g fill="#737373" fill-opacity="1"><g transform="translate(204.880894, 68.97277)"><g><path d="M 7.03125 0.109375 C 5.875 0.109375 4.84375 -0.140625 3.9375 -0.640625 C 3.03125 -1.140625 2.316406 -1.84375 1.796875 -2.75 C 1.273438 -3.664062 1.015625 -4.691406 1.015625 -5.828125 C 1.015625 -6.972656 1.273438 -7.992188 1.796875 -8.890625 C 2.316406 -9.796875 3.03125 -10.5 3.9375 -11 C 4.84375 -11.507812 5.875 -11.765625 7.03125 -11.765625 C 8.039062 -11.765625 8.941406 -11.566406 9.734375 -11.171875 C 10.523438 -10.773438 11.148438 -10.203125 11.609375 -9.453125 L 10.421875 -8.65625 C 10.035156 -9.226562 9.546875 -9.660156 8.953125 -9.953125 C 8.367188 -10.242188 7.726562 -10.390625 7.03125 -10.390625 C 6.1875 -10.390625 5.425781 -10.195312 4.75 -9.8125 C 4.082031 -9.4375 3.5625 -8.898438 3.1875 -8.203125 C 2.8125 -7.515625 2.625 -6.722656 2.625 -5.828125 C 2.625 -4.929688 2.8125 -4.140625 3.1875 -3.453125 C 3.5625 -2.765625 4.082031 -2.226562 4.75 -1.84375 C 5.425781 -1.46875 6.1875 -1.28125 7.03125 -1.28125 C 7.726562 -1.28125 8.367188 -1.421875 8.953125 -1.703125 C 9.546875 -1.984375 10.035156 -2.414062 10.421875 -3 L 11.609375 -2.203125 C 11.148438 -1.441406 10.519531 -0.863281 9.71875 -0.46875 C 8.914062 -0.0820312 8.019531 0.109375 7.03125 0.109375 Z M 7.03125 0.109375 "/></g></g></g><g fill="#737373" fill-opacity="1"><g transform="translate(217.370288, 68.97277)"><g><path d="M 8.34375 -0.703125 C 8.050781 -0.441406 7.6875 -0.238281 7.25 -0.09375 C 6.8125 0.0390625 6.351562 0.109375 5.875 0.109375 C 4.78125 0.109375 3.9375 -0.179688 3.34375 -0.765625 C 2.757812 -1.359375 2.46875 -2.195312 2.46875 -3.28125 L 2.46875 -10.34375 L 0.375 -10.34375 L 0.375 -11.671875 L 2.46875 -11.671875 L 2.46875 -14.21875 L 4.03125 -14.21875 L 4.03125 -11.671875 L 7.59375 -11.671875 L 7.59375 -10.34375 L 4.03125 -10.34375 L 4.03125 -3.375 C 4.03125 -2.675781 4.203125 -2.144531 4.546875 -1.78125 C 4.898438 -1.425781 5.40625 -1.25 6.0625 -1.25 C 6.382812 -1.25 6.695312 -1.296875 7 -1.390625 C 7.300781 -1.492188 7.5625 -1.644531 7.78125 -1.84375 Z M 8.34375 -0.703125 "/></g></g></g></svg>